<?xml version="1.0" encoding="UTF-8" standalone="no"?>
<!DOCTYPE svg PUBLIC "-//W3C//DTD SVG 1.1//EN" "http://www.w3.org/Graphics/SVG/1.1/DTD/svg11.dtd">
<svg width="100%" height="100%" viewBox="0 0 256 256" version="1.1" xmlns="http://www.w3.org/2000/svg" xmlns:xlink="http://www.w3.org/1999/xlink" xml:space="preserve" xmlns:serif="http://www.serif.com/" style="fill-rule:evenodd;clip-rule:evenodd;stroke-linecap:round;stroke-linejoin:round;stroke-miterlimit:1.5;">
    <circle cx="128" cy="128" r="120" style="stroke:white;stroke-width:4px;"/>
    <g transform="matrix(1,0,0,1,-49.1431,90.7907)">
        <g transform="matrix(200,0,0,200,66.8114,101.209)">
            <path d="M0.275,-0.27C0.276,-0.288 0.272,-0.3 0.262,-0.304C0.253,-0.308 0.234,-0.307 0.204,-0.3C0.157,-0.289 0.116,-0.299 0.08,-0.331C0.043,-0.363 0.025,-0.41 0.025,-0.472C0.025,-0.534 0.048,-0.588 0.093,-0.633C0.138,-0.679 0.191,-0.701 0.254,-0.701C0.282,-0.701 0.313,-0.694 0.346,-0.68C0.379,-0.666 0.408,-0.645 0.431,-0.618C0.433,-0.615 0.435,-0.614 0.438,-0.614C0.44,-0.615 0.442,-0.616 0.443,-0.619C0.458,-0.642 0.476,-0.662 0.499,-0.678C0.521,-0.694 0.551,-0.701 0.589,-0.7C0.637,-0.698 0.681,-0.668 0.719,-0.61C0.721,-0.607 0.724,-0.606 0.727,-0.606C0.729,-0.606 0.732,-0.608 0.733,-0.611C0.747,-0.636 0.764,-0.657 0.785,-0.673C0.806,-0.69 0.832,-0.698 0.863,-0.698C0.903,-0.697 0.936,-0.685 0.962,-0.661C0.988,-0.637 1.007,-0.597 1.019,-0.542C1.026,-0.503 1.041,-0.482 1.064,-0.48C1.07,-0.48 1.074,-0.477 1.074,-0.472C1.075,-0.466 1.071,-0.463 1.063,-0.46C0.999,-0.438 0.956,-0.404 0.932,-0.357C0.908,-0.309 0.909,-0.249 0.935,-0.176C0.946,-0.143 0.963,-0.119 0.984,-0.106C1.005,-0.092 1.029,-0.093 1.054,-0.109C1.064,-0.114 1.071,-0.114 1.075,-0.109C1.08,-0.103 1.079,-0.097 1.073,-0.092C1.051,-0.074 1.029,-0.057 1.007,-0.039C0.985,-0.022 0.964,-0.005 0.942,0.013C0.938,0.015 0.935,0.015 0.932,0.013C0.862,-0.043 0.821,-0.105 0.806,-0.173C0.792,-0.241 0.837,-0.321 0.941,-0.415C0.943,-0.417 0.944,-0.419 0.944,-0.421C0.944,-0.424 0.942,-0.426 0.939,-0.427C0.917,-0.443 0.9,-0.482 0.889,-0.545C0.878,-0.607 0.852,-0.639 0.813,-0.64C0.785,-0.64 0.761,-0.62 0.742,-0.578C0.74,-0.576 0.74,-0.574 0.742,-0.571C0.754,-0.544 0.764,-0.514 0.769,-0.481C0.775,-0.448 0.775,-0.413 0.77,-0.375C0.757,-0.286 0.738,-0.218 0.712,-0.172C0.687,-0.126 0.656,-0.081 0.621,-0.035C0.575,0.023 0.531,0.029 0.489,-0.016C0.478,-0.029 0.465,-0.038 0.452,-0.042C0.44,-0.045 0.425,-0.041 0.408,-0.028C0.402,-0.023 0.397,-0.022 0.392,-0.026C0.388,-0.03 0.388,-0.035 0.393,-0.042C0.435,-0.099 0.468,-0.132 0.492,-0.141C0.517,-0.149 0.541,-0.142 0.564,-0.12C0.584,-0.102 0.601,-0.093 0.617,-0.091C0.634,-0.09 0.646,-0.102 0.655,-0.127C0.673,-0.176 0.679,-0.245 0.674,-0.332C0.669,-0.42 0.651,-0.487 0.621,-0.534C0.59,-0.581 0.561,-0.609 0.534,-0.617C0.506,-0.625 0.481,-0.618 0.459,-0.595C0.456,-0.592 0.456,-0.589 0.458,-0.585C0.497,-0.531 0.518,-0.469 0.521,-0.398C0.523,-0.34 0.512,-0.285 0.487,-0.232C0.463,-0.178 0.431,-0.127 0.393,-0.079C0.351,-0.025 0.311,0.005 0.274,0.013C0.236,0.021 0.202,0.002 0.17,-0.044C0.143,-0.085 0.115,-0.09 0.087,-0.059C0.08,-0.053 0.074,-0.053 0.069,-0.059C0.063,-0.064 0.064,-0.07 0.071,-0.078C0.16,-0.168 0.229,-0.18 0.28,-0.113C0.288,-0.102 0.296,-0.092 0.303,-0.083C0.311,-0.073 0.322,-0.069 0.336,-0.069C0.355,-0.07 0.375,-0.091 0.396,-0.131C0.417,-0.172 0.427,-0.223 0.427,-0.285C0.427,-0.366 0.405,-0.437 0.364,-0.498C0.322,-0.559 0.274,-0.593 0.221,-0.599C0.167,-0.604 0.125,-0.594 0.094,-0.568C0.063,-0.543 0.048,-0.512 0.049,-0.477C0.05,-0.441 0.059,-0.413 0.077,-0.391C0.095,-0.37 0.129,-0.365 0.178,-0.378C0.272,-0.402 0.313,-0.367 0.3,-0.274C0.299,-0.264 0.295,-0.259 0.287,-0.259C0.279,-0.259 0.275,-0.263 0.275,-0.27Z" style="fill:white;fill-rule:nonzero;"/>
        </g>
    </g>
</svg>
